<svg id="Layer_1" data-name="Layer 1" xmlns="http://www.w3.org/2000/svg" xmlns:xlink="http://www.w3.org/1999/xlink" viewBox="0 0 551.86 551.62"><defs><style>.cls-1{fill-rule:evenodd;fill:url(#linear-gradient);}</style><linearGradient id="linear-gradient" x1="1221.14" y1="454.89" x2="696.14" y2="625.48" gradientUnits="userSpaceOnUse"><stop offset="0" stop-color="#2430c3"/><stop offset="1" stop-color="#161b5a"/></linearGradient></defs><title>icon</title><path class="cls-1" d="M1002.42,267.72c131.59,21,232.15,135,232.15,272.46,0,149.78-119.34,271.68-268.11,275.82V757.12c116.27-4.12,209.27-99.66,209.27-216.94a217.09,217.09,0,0,0-121.32-194.87V666.23l-139.74-133v279.4c-131.49-21.06-232-135-232-272.43,0-149.65,119.13-271.46,267.72-275.8v58.88C834.34,327.58,741.55,423,741.55,540.18A217.08,217.08,0,0,0,862.88,735.05V412.66l139.54,132.92V267.72Z" transform="translate(-682.71 -264.38)"/></svg>